<svg xmlns="http://www.w3.org/2000/svg" fill="none" viewBox="0 0 64 64" id="Observablehq--Streamline-Svg-Logos" height="64" width="64"><desc>Observablehq Streamline Icon: https://streamlinehq.com</desc><path fill="#000000" d="M31.99993333333333 52.888999999999996c-2.7819333333333334 0 -5.192133333333333 -0.606 -7.230733333333333 -1.8173333333333332 -2.0313333333333334 -1.2068666666666665 -3.6554666666666664 -2.9164666666666665 -4.6874666666666664 -4.9345333333333325 -1.0972666666666666 -2.0998 -1.9004666666666665 -4.320399999999999 -2.3902 -6.607733333333333 -0.5196 -2.4806666666666666 -0.7727333333333333 -5.0027333333333335 -0.7556666666666666 -7.5294 0 -2.0007333333333333 0.13053333333333333 -3.913266666666667 0.3941333333333333 -5.7422 0.26113333333333333 -1.8264666666666667 0.7457333333333334 -3.6833333333333336 1.4512 -5.568 0.7054666666666667 -1.8846 1.6144 -3.5185999999999997 2.7215999999999996 -4.9041999999999994 1.1526666666666667 -1.4195333333333333 2.643133333333333 -2.5750666666666664 4.356 -3.3770666666666664 1.7976 -0.8657333333333332 3.8412666666666664 -1.2973999999999999 6.141133333333333 -1.2973999999999999 2.7819333333333334 0 5.1922 0.6057333333333332 7.2307999999999995 1.8173333333333332 2.0313333333333334 1.2067333333333332 3.6554 2.9164 4.6874666666666664 4.9344 1.0896666666666666 2.0772666666666666 1.8855333333333333 4.279933333333333 2.3902666666666663 6.607733333333333 0.502 2.3256666666666668 0.7555999999999999 4.837133333333333 0.7555999999999999 7.5294 0 2.0007333333333333 -0.13066666666666665 3.913266666666667 -0.3940666666666666 5.7422 -0.28106666666666663 1.8987999999999998 -0.7776000000000001 3.765333333333333 -1.4814 5.567933333333333 -0.7281333333333333 1.8846 -1.6319333333333335 3.5187333333333335 -2.7215999999999996 4.9044 -1.0897333333333332 1.3854 -2.5307999999999997 2.5111999999999997 -4.325933333333333 3.377 -1.7952 0.8657333333333332 -3.8412666666666664 1.2974666666666665 -6.141133333333333 1.2974666666666665Zm5.317733333333333 -15.358666666666666c1.4406666666666665 -1.4464 2.2420666666666667 -3.4478666666666666 2.2143333333333333 -5.530333333333333 0 -2.1516666666666664 -0.7206666666666666 -3.9949999999999997 -2.159133333333333 -5.530333333333333 -1.4410666666666665 -1.5353333333333332 -3.2314 -2.303 -5.372933333333333 -2.303 -2.1414666666666666 0 -3.9316 0.7676666666666666 -5.372933333333333 2.303 -1.4111333333333331 1.4625333333333332 -2.1904666666666666 3.4587333333333334 -2.159133333333333 5.530333333333333 0 2.1516666666666664 0.7205999999999999 3.9949999999999997 2.159133333333333 5.530333333333333 1.4413333333333331 1.5353333333333332 3.2314666666666665 2.303 5.372933333333333 2.303 2.1415333333333333 0 3.914266666666667 -0.7676666666666666 5.317733333333333 -2.303ZM31.99993333333333 63.33333333333333c16.638266666666667 0 30.1282 -14.029599999999999 30.1282 -31.333333333333332 0 -17.3038 -13.489933333333333 -31.333333333333332 -30.1282 -31.333333333333332C15.361666666666666 0.6666666666666666 1.8717466666666667 14.6962 1.8717466666666667 32c0 17.303733333333334 13.48992 31.333333333333332 30.128186666666664 31.333333333333332Z" stroke-width="0.6667"></path></svg>